<?xml version="1.0" encoding="utf-8"?>
<!-- Generator: Adobe Illustrator 27.2.0, SVG Export Plug-In . SVG Version: 6.00 Build 0)  -->
<svg version="1.1" id="Capa_1" xmlns="http://www.w3.org/2000/svg" xmlns:xlink="http://www.w3.org/1999/xlink" x="0px" y="0px"
	 viewBox="0 0 800 800" style="enable-background:new 0 0 800 800;" xml:space="preserve">
<style type="text/css">
	.st0{fill:#CEBCCC;}
</style>
<path class="st0" d="M800,452.1c-15.2-94-63.6-180.3-136.1-242.9c-36-31.1-76.6-55.3-120.7-72.1c-45.7-17.4-93.9-26.2-143.1-26.2
	c-49.3,0-97.4,8.8-143.1,26.2c-44.1,16.8-84.7,41.1-120.7,72.1C63.6,271.8,15.3,358.1,0,452.1c-0.2,1,0.4,2.1,1.4,2.5L382,619.2
	c0,0-34.3,31.8-45.8,42.4c-0.5,0.4-0.7,1-0.7,1.7c0,0.6,0.3,1.2,0.7,1.7c1.7,2,24.7,24.2,63.9,24.2s62.8-22.7,63.9-24.2
	c0.4-0.5,0.7-1.1,0.7-1.7c0-0.6-0.3-1.2-0.7-1.7C452.4,651,418,619.2,418,619.2l380.6-164.6C799.6,454.2,800.1,453.1,800,452.1z
	 M413.9,404.3V278.7c36.3,1.8,71.3,10.5,104.1,25.9l-62.5,108.2C442.1,408.3,428.1,405.5,413.9,404.3z M481.4,423.9l61.3-106.2
	c26.5,15.9,50.1,36,70.1,59.8l-93.6,73.4C507.8,440.2,495.1,431.1,481.4,423.9z M537.9,471.5l91.6-71.8
	c16.9,24.8,29.6,51.9,37.7,80.6l-101.4,44.1C559.7,505.3,550.3,487.5,537.9,471.5z M132.7,480.4c8.1-28.8,20.8-55.9,37.8-80.7
	l91.6,71.8c-12.4,16-21.8,33.9-28,53.1L132.7,480.4z M187.3,377.5c20.2-24,44.1-44.3,70.9-60.3l61.3,106.2
	c-14.1,7.3-27.1,16.5-38.7,27.4L187.3,377.5z M386.1,278.7v125.7c-13.8,1.1-27.5,3.8-40.6,8.2l-62.6-108.3
	C315.4,289,350.1,280.5,386.1,278.7z"/>
</svg>
