<svg xmlns="http://www.w3.org/2000/svg" enable-background="new 0 0 512 512" viewBox="0 0 512 512"><path d="M495.23,78.96l-62.2-62.2c-10.37-10.37-27.25-10.37-37.62,0c-5.01,5.01-7.77,11.69-7.77,18.81c0,5.11,1.43,9.99,4.08,14.19
	l-23.05,23.05l-6.6-6.6c-5.64-5.64-13.17-8.75-21.19-8.75c-8.02,0-15.55,3.11-21.19,8.75c-9.29,9.29-11.19,23.21-5.7,34.4
	L81.28,333.34c-4.08,4.08-6.08,9.5-5.63,15.26l3.14,39.68c0.39,4.9-1.18,9.14-4.65,12.62l-16.82,16.82
	c-1.31,1.31-2.05,3.09-2.05,4.95s0.74,3.64,2.05,4.95l8.58,8.58l-54.86,54.86c-2.73,2.73-2.73,7.17,0,9.9
	c1.37,1.37,3.16,2.05,4.95,2.05s3.58-0.68,4.95-2.05l54.86-54.86l8.58,8.58c1.31,1.31,3.09,2.05,4.95,2.05s3.64-0.74,4.95-2.05
	l16.82-16.82c3.47-3.47,7.72-5.03,12.62-4.65l39.68,3.14c5.75,0.46,11.18-1.54,15.26-5.63L411.38,198
	c4.15,2.04,8.68,3.06,13.21,3.06c7.67,0,15.35-2.92,21.19-8.76c11.68-11.68,11.68-30.7,0-42.38l-6.6-6.6l23.05-23.05
	c4.2,2.65,9.08,4.08,14.19,4.08c7.12,0,13.8-2.76,18.81-7.77c5.01-5.01,7.77-11.69,7.77-18.81C503,90.65,500.24,83.97,495.23,78.96z
	 M400.35,189.24l-21.81,21.81l-77.58-77.58l21.81-21.81L400.35,189.24z M89.34,439.83l-17.16-17.16l11.87-11.87
	c0.28-0.28,0.55-0.57,0.82-0.87l17.2,17.2c-0.29,0.27-0.58,0.54-0.87,0.82L89.34,439.83z M168.76,420.82
	c-1.21,1.21-2.56,1.7-4.26,1.57l-39.68-3.14c-3.49-0.28-6.85,0.01-10.02,0.82L91.93,397.2c0.81-3.18,1.1-6.53,0.82-10.02
	l-3.14-39.68c-0.13-1.7,0.36-3.05,1.57-4.26l199.88-199.88l77.58,77.58l-29.1,29.1l-31.68-31.68c-2.73-2.73-7.17-2.73-9.9,0
	c-2.73,2.73-2.73,7.17,0,9.9l31.68,31.68l-13.62,13.62l-14.92-14.92c-2.73-2.73-7.17-2.73-9.9,0c-2.73,2.73-2.73,7.17,0,9.9
	l14.92,14.92l-13.62,13.62l-14.92-14.92c-2.73-2.73-7.17-2.73-9.9,0c-2.73,2.73-2.73,7.17,0,9.9l14.92,14.92l-13.62,13.62
	l-31.68-31.68c-2.73-2.73-7.17-2.73-9.9,0c-2.73,2.73-2.73,7.17,0,9.9l31.68,31.68l-13.62,13.62l-14.92-14.92
	c-2.73-2.73-7.17-2.73-9.9,0c-2.73,2.73-2.73,7.17,0,9.9l14.92,14.92l-13.62,13.62L207,352.74c-2.73-2.73-7.17-2.73-9.9,0
	c-2.73,2.73-2.73,7.17,0,9.9l14.92,14.92l-13.62,13.62l-31.68-31.68c-2.73-2.73-7.17-2.73-9.9,0c-2.73,2.73-2.73,7.17,0,9.9
	l31.68,31.68L168.76,420.82z M435.89,182.4c-6.23,6.23-16.36,6.23-22.58,0L329.6,98.69c-6.23-6.23-6.23-16.35,0-22.58
	c3-3,7.01-4.65,11.29-4.65s8.29,1.65,11.29,4.65l83.71,83.71C442.11,166.05,442.11,176.18,435.89,182.4z M378.58,82.72l22.58-22.58
	l50.7,50.7l-22.58,22.58L378.58,82.72z M485.33,106.68c-2.36,2.36-5.53,3.67-8.91,3.67s-6.55-1.3-8.91-3.67l-62.2-62.2
	c-2.36-2.36-3.67-5.53-3.67-8.91s1.3-6.55,3.67-8.91s5.53-3.67,8.91-3.67c3.38,0,6.54,1.3,8.91,3.67l62.2,62.2
	c2.36,2.36,3.67,5.53,3.67,8.91C489,101.15,487.7,104.32,485.33,106.68z"/></svg>