<svg xmlns="http://www.w3.org/2000/svg" viewBox="0 0 64 64"><g data-name="Outline"><path d="M9.354 36.251a37.261 37.261 0 0 1 2.922 10.071C13.668 56.547 20.487 61.968 32 62h.1c11.271 0 18.037-5.252 19.566-15.194a40.788 40.788 0 0 1 2.944-10.467l2.707-6.1a5.171 5.171 0 0 0-9.359-4.388c-.372.723-1.455 2.91-1.455 2.91V11.686C46.585 7 41 4.237 37.485 7.266c-.642-6.99-10.46-6.945-10.98-.008-3.515-3.019-9.089-.249-9 4.428v17.078l-1.468-2.936a5.041 5.041 0 0 0-6.808-2.307A5.044 5.044 0 0 0 6.7 30.266Zm.723-10.921a3.02 3.02 0 0 1 4.179 1.417 278.805 278.805 0 0 1 3.349 6.7A1.006 1.006 0 0 0 19.5 33c-.092-5.328-.059-15.986 0-21.314.053-4.8 6.9-4.9 7-.186.065 3.124 0 12.5 0 12.5a1 1 0 0 0 2 0V7.5a3.5 3.5 0 1 1 7 .186V24a1 1 0 0 0 2 0s-.072-9.376 0-12.5c.109-4.7 6.937-4.615 7 .186.07 5.328.092 15.986 0 21.314a1.006 1.006 0 0 0 1.9.447c.813-1.682 3.342-6.687 3.342-6.687a3.171 3.171 0 0 1 5.739 2.694l-2.7 6.074A42.682 42.682 0 0 0 49.687 46.5C48.3 55.487 42.335 60 32 60c-10.667-.029-16.472-4.592-17.744-13.948a39.344 39.344 0 0 0-3.077-10.613l-2.647-5.96a3.057 3.057 0 0 1 1.545-4.149Z"/><circle cx="23" cy="12" r="1"/><circle cx="23" cy="17" r="1"/><circle cx="23" cy="22" r="1"/><circle cx="41" cy="12" r="1"/><circle cx="41" cy="17" r="1"/><circle cx="41" cy="22" r="1"/><circle cx="32" cy="9" r="1"/><circle cx="32" cy="14" r="1"/><circle cx="32" cy="19" r="1"/><path d="M32 34.155a1 1 0 0 0 1-1V30a1 1 0 0 0-2 0v3.155a1 1 0 0 0 1 1zm-9.591-3.962a1 1 0 0 0-.216 1.4s1.5 2.048 2 2.732a1 1 0 0 0 1.614-1.182l-2-2.732a1 1 0 0 0-1.398-.218zm18.398 4.13 2-2.732a1 1 0 0 0-1.614-1.182l-2 2.732a1 1 0 0 0 1.614 1.182zM32 51.69a1 1 0 0 0-1 1V55a1 1 0 0 0 2 0v-2.31a1 1 0 0 0-1-1zm7.707-.129a1 1 0 0 0-1.414 1.414l2 2a1 1 0 0 0 1.414-1.414zm-15.414 0-2 2a1 1 0 0 0 1.414 1.414l2-2a1 1 0 0 0-1.414-1.414zm-5.748-7.607C19.771 45.132 25.246 50 32 50s12.229-4.868 13.455-6.046A3.989 3.989 0 0 0 45 36a1 1 0 0 0 0 2 2 2 0 0 1 .369 3.963C43.967 40.639 38.585 36 32 36s-11.967 4.639-13.369 5.963A2 2 0 0 1 19 38a1 1 0 0 0 0-2 3.989 3.989 0 0 0-.455 7.954zM38 39.408A23.413 23.413 0 0 1 43.529 43 23.413 23.413 0 0 1 38 46.592a6.933 6.933 0 0 0 0-7.184zM32 38a5 5 0 1 1-5 5 5.006 5.006 0 0 1 5-5zm-6 1.408a6.933 6.933 0 0 0 0 7.184A23.413 23.413 0 0 1 20.471 43 23.413 23.413 0 0 1 26 39.408z"/><path d="M32 42a1 1 0 0 1 1 1 1 1 0 0 0 2 0 3 3 0 0 0-3-3 1 1 0 0 0 0 2Z"/></g></svg>