<svg xmlns="http://www.w3.org/2000/svg" enable-background="new 0 0 50 50" viewBox="0 0 50 50"><path d="M25.00297,0.98548c-13.26533,0-24,10.73409-24,23.99902c0,21.18328,25.79803,32.14338,40.9707,16.9707
		C56.99902,26.92986,46.32526,0.98548,25.00297,0.98548z M3.00297,24.9845c0-5.75293,2.20557-11.16016,6.19702-15.28418
		c0.4898-0.21143,2.84922-3.26953,7.70337-3.26953c2.79199,0,5.41797,1.08789,7.39258,3.0625
		c4.07617,4.07617,4.07617,10.70801,0,14.78418c-4.85645,4.85645-4.85645,12.75683,0,17.61328
		c2.36841,2.36841,5.46216,3.57263,8.57226,3.63049C18.38835,51.06131,3.00297,40.33387,3.00297,24.9845z M40.80326,40.27137
		c-0.11133,0.04858-0.21777,0.11401-0.30908,0.20532c-4.07715,4.07715-10.70898,4.0752-14.78418,0
		c-4.07617-4.07617-4.07617-10.70898,0-14.78515c4.85547-4.85547,4.85547-12.75684,0-17.6123
		C23.41728,5.7865,20.38651,4.50721,17.15531,4.443c2.47485-0.94421,5.11963-1.45752,7.84766-1.45752
		C44.29002,2.98548,54.32087,26.30033,40.80326,40.27137z"/><path d="M20.91899 14.6261c-1.73231-1.73231-4.53849-1.7339-6.27442 0-1.72949 1.73047-1.72949 4.54492 0 6.27539 1.73329 1.73127 4.53975 1.73466 6.27442 0C22.64945 19.17103 22.64945 16.35657 20.91899 14.6261zM19.50492 19.48743c-.9209.9209-2.52734.91895-3.44629 0-.94922-.9502-.94922-2.49707 0-3.44727.95066-.95066 2.49444-.95185 3.44629 0C20.45512 16.99036 20.45512 18.53724 19.50492 19.48743zM29.63188 29.61341c-1.73047 1.73047-1.73047 4.54492 0 6.27539 1.73235 1.73235 4.54051 1.73391 6.27441 0 1.72737-1.72736 1.7406-4.53479 0-6.27539C34.17398 27.8811 31.36566 27.87962 29.63188 29.61341zM34.49223 34.47474c-.91992.9209-2.52637.91895-3.44629 0-.9502-.9502-.9502-2.49707 0-3.44726.95066-.95066 2.49444-.95185 3.44629 0C35.43943 31.97467 35.44981 33.51715 34.49223 34.47474z"/></svg>