<svg xmlns="http://www.w3.org/2000/svg" data-name="Layer 1" viewBox="0 0 64 64"><path d="M31,40.411v1.945A8.983,8.983,0,0,0,24,39H20a1,1,0,0,0-1,1,9.01,9.01,0,0,0,9,9h3v5H29a7.008,7.008,0,0,0-7,7,1,1,0,0,0,1,1H41a1,1,0,0,0,1-1,7.008,7.008,0,0,0-7-7H33V53h3a9.01,9.01,0,0,0,9-9,1,1,0,0,0-1-1H40a8.983,8.983,0,0,0-7,3.356V40.411L45.379,27.883a9.14,9.14,0,0,0,0-12.8l-1.408-1.425A8.9,8.9,0,0,0,32,13.009a8.9,8.9,0,0,0-11.973.648l-1.406,1.425a9.139,9.139,0,0,0,0,12.8ZM28,47a7.011,7.011,0,0,1-6.929-6H24a7.011,7.011,0,0,1,6.929,6Zm12-2h2.929A7.011,7.011,0,0,1,36,51H33.071A7.011,7.011,0,0,1,40,45ZM35,56a5.008,5.008,0,0,1,4.9,4H24.1A5.008,5.008,0,0,1,29,56ZM20.044,16.487l1.406-1.424a6.9,6.9,0,0,1,9.839,0,1.029,1.029,0,0,0,1.422,0,6.9,6.9,0,0,1,9.838,0l1.408,1.425a7.133,7.133,0,0,1,0,9.99L32,38.577l-11.957-12.1A7.134,7.134,0,0,1,20.044,16.487Z"/><polygon points="31 28 33 28 33 25 36 25 36 23 33 23 33 20 31 20 31 23 28 23 28 25 31 25 31 28"/><polygon points="31 10 33 10 33 7 36 7 36 5 33 5 33 2 31 2 31 5 28 5 28 7 31 7 31 10"/><polygon points="59 15 59 12 57 12 57 15 54 15 54 17 57 17 57 20 59 20 59 17 62 17 62 15 59 15"/><polygon points="5 22 7 22 7 19 10 19 10 17 7 17 7 14 5 14 5 17 2 17 2 19 5 19 5 22"/></svg>